<?xml version="1.0" encoding="UTF-8"?>
<!-- Generator: visioncortex VTracer 0.6.12 -->
<svg version="1.1" xmlns="http://www.w3.org/2000/svg" width="338" height="399">
<path d="M0 0 C1.16942727 -0.00199105 2.33885454 -0.0039821 3.54371899 -0.00603348 C4.8345572 -0.00312064 6.12539541 -0.0002078 7.45534992 0.00279331 C8.83562261 0.00235746 10.21589522 0.0014823 11.59616739 0.00020415 C15.39752551 -0.00203808 19.19885561 0.00197678 23.00021017 0.00698221 C27.09631023 0.0112904 31.19240864 0.00984002 35.28851032 0.00907993 C42.38810509 0.00855493 49.48769068 0.01169924 56.58728313 0.01731777 C66.85217168 0.025436 77.11705579 0.02804832 87.3819472 0.02930576 C104.03502345 0.03149577 120.68809481 0.03815448 137.3411684 0.04760838 C153.52053013 0.05678381 169.69989054 0.063864 185.87925434 0.06811619 C186.87612269 0.06837891 187.87299105 0.06864164 188.90006753 0.06891232 C193.90093542 0.07021733 198.90180331 0.07148105 203.90267122 0.07272422 C245.40666913 0.08309525 286.91066165 0.10071219 328.41465473 0.12304783 C328.41465473 4.2524026 326.19934797 5.81847242 323.47715473 8.62304783 C319.79889305 12.51406243 316.26481236 16.4399109 312.91465473 20.62304783 C309.28459809 25.13468965 305.45908836 29.39074626 301.51597309 33.62500095 C297.61007508 37.84521405 293.96936014 42.24872627 290.38731098 46.74804783 C284.87035691 53.39024204 284.87035691 53.39024204 279.41465473 54.12304783 C276.25247124 54.26034288 273.09457835 54.25359167 269.92983723 54.24330235 C268.97001385 54.24415677 268.01019047 54.24501119 267.02128154 54.24589151 C263.80302176 54.24753947 260.58481402 54.24203608 257.36655903 54.23657322 C255.06043213 54.23629117 252.75430514 54.23644942 250.44817829 54.23701572 C244.18420349 54.23730302 237.92024778 54.23141715 231.65627742 54.22444177 C225.1112854 54.21819703 218.56629295 54.21760354 212.02129841 54.21641636 C201.03481941 54.21382644 190.04834711 54.2074106 179.06187153 54.19848728 C167.7464422 54.18930635 156.43101477 54.18222884 145.11558247 54.17797947 C144.41793912 54.17771675 143.72029577 54.17745402 143.00151172 54.17718334 C139.50159223 54.17587829 136.00167272 54.17461458 132.50175321 54.17337143 C103.47271504 54.16300703 74.44368703 54.14457314 45.41465473 54.12304783 C45.08465473 79.53304783 44.75465473 104.94304783 44.41465473 131.12304783 C35.85527973 131.14367283 27.29590473 131.16429783 18.47715473 131.18554783 C17.12432392 131.19009983 17.12432392 131.19009983 10.27818012 131.21313572 C8.14789091 131.21605468 6.01760115 131.21860328 3.88731098 131.22070408 C2.76965351 131.22582005 1.65199604 131.23093601 0.50047016 131.23620701 C-0.55515118 131.23632786 -1.61077251 131.23644871 -2.69838238 131.23657322 C-3.15915928 131.23768353 -3.15915928 131.23768353 -5.49096966 131.24330235 C-7.58534527 131.12304783 -7.58534527 131.12304783 -8.58534527 130.12304783 C-8.6814866 128.45280114 -8.70722249 126.77846507 -8.70559978 125.10545444 C-8.70697445 124.01865391 -8.70834911 122.93185337 -8.70976543 121.81211948 C-8.7079678 121.21079449 -8.7079678 121.21079449 -8.69887066 118.16772556 C-8.69901669 116.90936893 -8.69916271 115.65101231 -8.69931316 114.35452366 C-8.69960112 110.8939353 -8.69370476 107.43338131 -8.68673921 103.97280097 C-8.68050529 100.35996692 -8.67990184 96.74713216 -8.6787138 93.13429356 C-8.67560059 86.28841275 -8.66738735 79.44254783 -8.65736431 72.59667403 C-8.64620284 64.80478194 -8.64069264 57.0128891 -8.63566887 49.22099102 C-8.62520473 33.18833397 -8.60760549 17.15569292 -8.58534527 1.12304783 C-5.453317 0.07903841 -3.28621459 -0.00123125 0 0 Z " fill="#0D3658" transform="translate(8.585345268249512,-0.1230478286743164)"/>
<path d="M0 0 C14.85 0 29.7 0 45 0 C45.33 22.44 45.66 44.88 46 68 C52.93 68 59.86 68 67 68 C67 45.56 67 23.12 67 0 C104.62 0 142.24 0 181 0 C178 9 178 9 170 24 C150.86 24 131.72 24 112 24 C112.01160156 30.82300781 112.02320312 37.64601563 112.03515625 44.67578125 C112.0402642 48.99153741 112.04507806 53.30728985 112.04882812 57.62304688 C112.05481197 64.47714001 112.0619001 71.33121982 112.07543945 78.18530273 C112.08628394 83.70956252 112.09228017 89.23380802 112.09487724 94.75807762 C112.09672866 96.86845309 112.10034388 98.97882775 112.10573006 101.08919716 C112.11296116 104.03905569 112.11399006 106.98885477 112.11352539 109.9387207 C112.11712067 110.81625504 112.12071594 111.69378937 112.12442017 112.59791565 C112.11863022 115.98204634 112.07770423 118.76688732 111 122 C102.94155743 122.20935335 94.8842668 122.36884837 86.82376957 122.46630955 C83.08001636 122.51310915 79.33813489 122.57647925 75.59545898 122.67895508 C71.97724233 122.77739306 68.36081478 122.83068698 64.74136162 122.85389519 C63.36692588 122.87041259 61.99257854 122.90267072 60.61891365 122.95157051 C49.90495157 123.31748691 49.90495157 123.31748691 45.20700073 120.06832886 C42.93138358 117.81846419 40.95241197 115.53172907 39 113 C37.9021886 111.74441481 36.79917717 110.49332534 35.6875 109.25 C35.40970703 108.92644531 35.40970703 108.92644531 34.00390625 107.2890625 C31.43129982 104.35037367 28.78055771 101.48865018 26.125 98.625 C21.79135411 93.94850025 17.49454621 89.24299119 13.2421875 84.4921875 C11.58950834 82.6552375 9.928956 80.8278122 8.2578125 79.0078125 C8.02811768 78.75717041 8.02811768 78.75717041 6.86572266 77.48876953 C5.56827638 76.07442785 4.26857516 74.66215572 2.96875 73.25 C-0.28445355 69.53205308 -0.12241554 67.32854478 -0.11352539 62.43896484 C-0.11367142 61.76567642 -0.11381744 61.092388 -0.1139679 60.3986969 C-0.11327027 58.16941119 -0.10548489 55.94020865 -0.09765625 53.7109375 C-0.09579154 52.16679937 -0.09436789 50.62266066 -0.09336853 49.07852173 C-0.08954754 45.01129528 -0.07972082 40.94410445 -0.06866455 36.87689209 C-0.05664451 31.99854264 -0.05204619 27.1201813 -0.04621124 22.24182129 C-0.03650885 14.82785607 -0.01734938 7.41396904 0 0 Z " fill="#0D3658" transform="translate(0,277)"/>
<path d="M0 0 C63.69 0 127.38 0 193 0 C191.9259103 4.2963588 190.96671979 5.436113 188 8.5625 C184.73878098 12.07576907 181.62354927 15.63493223 178.625 19.375 C174.94793787 23.92328242 171.0825461 28.22700463 167.09960938 32.50366211 C163.22474022 36.68985602 159.61618745 41.05792343 156.0703125 45.52734375 C155.38710937 46.34332031 154.70390625 47.15929687 154 48 C153.67992226 48.43214561 153.67992226 48.43214561 152.06013489 50.61906433 C147.52266508 54.14943934 143.56529114 53.66364484 137.9675293 53.56762695 C136.85489212 53.56835709 135.74225494 53.56908722 134.59590149 53.56983948 C130.92150984 53.56635853 127.24838872 53.52747034 123.57421875 53.48828125 C121.02546379 53.47895501 118.47669987 53.47183801 115.92793274 53.46684265 C109.90713056 53.44970842 103.88687302 53.4103105 97.86628896 53.3600952 C91.01026152 53.30415638 84.15421203 53.27670397 77.29801309 53.25161803 C63.19842351 53.1993926 49.0992367 53.11147889 35 53 C35.03552979 54.16571533 35.07105957 55.33143066 35.10766602 56.5324707 C35.23795744 60.85409916 35.36114489 65.17590588 35.48217773 69.49780273 C35.53557425 71.36895291 35.59090179 73.24004902 35.64819336 75.11108398 C35.73016978 77.7991978 35.80521854 80.48742905 35.87890625 83.17578125 C35.89242378 83.59457802 35.89242378 83.59457802 35.96083069 85.71394348 C36.04776959 89.0908368 36.07700668 91.76897996 35 95 C23.45 95 11.9 95 0 95 C-0.17117765 88.86393979 -0.33450356 82.72837624 -0.48217773 76.59179688 C-0.53367198 74.52952282 -0.58869134 72.46733198 -0.64819336 70.40527344 C-1.32096835 46.88739997 -0.5125092 23.575423 0 0 Z " fill="#0D3658" transform="translate(76,78)"/>
<path d="M0 0 C1.30582031 -0.00257813 2.61164062 -0.00515625 3.95703125 -0.0078125 C7.1875 0.125 7.1875 0.125 9.1875 1.125 C10.26202182 7.08682214 10.30776586 12.94603492 10.25 18.98828125 C10.24810669 19.44518089 10.24810669 19.44518089 10.23852539 21.75737 C10.22639706 24.65079672 10.20775535 27.54411947 10.1875 30.4375 C10.16093533 34.26692422 10.1409522 38.09629982 10.125 41.92578125 C10.11670166 42.80389969 10.10840332 43.68201813 10.09985352 44.58674622 C10.09655029 45.40156967 10.09324707 46.21639313 10.08984375 47.0559082 C10.08722534 47.41357521 10.08722534 47.41357521 10.07397461 49.22358704 C10.1875 51.125 10.1875 51.125 11.1875 54.125 C42.5375 54.125 73.8875 54.125 106.1875 54.125 C101.1875 37.125 101.1875 37.125 100.1875 36.125 C98.16335009 36.00124831 96.13492263 35.94702689 94.10717773 35.91967773 C92.80590439 35.89973251 91.50463104 35.87978729 90.16392517 35.85923767 C88.7329826 35.84225201 87.30203875 35.82537325 85.87109375 35.80859375 C84.4152008 35.78803094 82.95931391 35.76703466 81.50343323 35.74562073 C77.66477353 35.69033039 73.82605935 35.64095198 69.98730469 35.59277344 C66.07286712 35.54260909 62.15850904 35.48689664 58.24414062 35.43164062 C50.55866099 35.32397397 42.87311543 35.22254807 35.1875 35.125 C33.35773984 32.01503222 32.98120698 29.94317118 33.2109375 26.359375 C33.23671875 25.91464844 33.23671875 25.91464844 33.3671875 23.6640625 C33.43164062 22.74367187 33.49609375 21.82328125 33.5625 20.875 C33.59085938 20.40707031 33.59085938 20.40707031 33.734375 18.0390625 C33.87552788 15.73356552 34.0269035 13.42921072 34.1875 11.125 C43.53270566 11.0087215 52.8776591 10.92009114 62.22343254 10.86593914 C66.56393006 10.83993775 70.90392962 10.80471513 75.24414062 10.74780273 C79.43928996 10.693142 83.63396287 10.66350847 87.82944107 10.65061378 C89.42333594 10.64143453 91.01720719 10.62351038 92.61089706 10.59634972 C103.45459145 10.41903487 112.20880165 11.26869506 120.5 19 C124.72150365 24.43786911 126.25241262 31.62172419 128.1875 38.125 C128.7416912 39.85684749 129.30256152 41.58659798 129.875 43.3125 C130.08511719 43.96605469 130.29523438 44.61960938 130.51171875 45.29296875 C130.73472656 45.89753906 130.95773438 46.50210938 131.1875 47.125 C131.44660156 47.82882813 131.70570313 48.53265625 131.97265625 49.2578125 C133.62627503 51.79938734 135.03969049 52.05292266 137.9375 52.8125 C138.77796875 53.04324219 139.6184375 53.27398437 140.484375 53.51171875 C143.3617128 54.16452516 146.27718171 54.63994695 149.1875 55.125 C149.1875 62.715 149.1875 70.305 149.1875 78.125 C122.65831702 78.27862954 96.12911018 78.42687918 69.59985733 78.5679636 C57.28237467 78.63360486 44.96490801 78.70116018 32.64746094 78.77319336 C21.91385154 78.83595933 11.18022949 78.89516271 0.44657683 78.95005554 C-5.23883819 78.97925653 -10.92423063 79.01026349 -16.60961151 79.04553413 C-21.95778284 79.07865659 -27.30595806 79.10702566 -32.6541748 79.13170624 C-34.61982441 79.14162293 -36.58546604 79.15329506 -38.55109406 79.16683006 C-41.22968142 79.18501498 -43.90822559 79.19694992 -46.58685303 79.20729065 C-46.97790407 79.21069254 -46.97790407 79.21069254 -48.95685935 79.22790819 C-52.38213806 79.23502184 -55.54025151 79.21477571 -58.8125 78.125 C-58.83562635 69.5369428 -58.85341658 60.94889851 -58.86431217 52.36081791 C-58.86954036 48.373428 -58.87663684 44.38605933 -58.88793945 40.39868164 C-58.89877061 36.55374886 -58.90477732 32.70883655 -58.90737724 28.86388969 C-58.90923108 27.39381017 -58.91285091 25.92373182 -58.91823006 24.45366096 C-58.92544355 22.40145533 -58.92649081 20.34933533 -58.92602539 18.29711914 C-58.928246 17.12685684 -58.93046661 15.95659454 -58.93275452 14.75086975 C-58.8125 12.125 -58.8125 12.125 -57.8125 11.125 C-54.71164779 10.96458807 -51.63062421 10.86536598 -48.52734375 10.80859375 C-47.59652481 10.78781265 -46.66570587 10.76703156 -45.7066803 10.74562073 C-42.72119818 10.68002069 -39.73562516 10.62119198 -36.75 10.5625 C-34.73111024 10.5193247 -32.7122298 10.47571075 -30.69335938 10.43164062 C-25.73316703 10.32432871 -20.77288291 10.22309112 -15.8125 10.125 C-15.4825 7.155 -15.1525 4.185 -14.8125 1.125 C-9.8253318 0.3099764 -5.06998817 -0.01010965 0 0 Z M-32.8125 35.125 C-35.39110235 38.99290352 -34.82364505 41.89113915 -34.4375 46.3125 C-34.38078125 47.06208984 -34.3240625 47.81167969 -34.265625 48.58398438 C-34.12439331 50.43176559 -33.96973833 52.278512 -33.8125 54.125 C-31.02076945 54.15190104 -28.22929652 54.17179053 -25.4375 54.1875 C-25.04046875 54.19168945 -25.04046875 54.19168945 -23.03125 54.21289062 C-17.0390625 54.23828125 -17.0390625 54.23828125 -14.8125 53.125 C-14.78565688 50.31243719 -14.76573812 47.50012759 -14.75 44.6875 C-14.74162109 43.88505859 -14.73324219 43.08261719 -14.72460938 42.25585938 C-14.7159857 40.21204779 -14.7602185 38.16816098 -14.8125 36.125 C-16.92206132 34.01543868 -21.34533122 34.89387681 -24.25 34.875 C-25.03955078 34.854375 -25.82910156 34.83375 -26.64257812 34.8125 C-28.93359375 34.796875 -28.93359375 34.796875 -32.8125 35.125 Z " fill="#C9A84C" transform="translate(58.8125,180.875)"/>
<path d="M0 0 C0 31.68 0 63.36 0 96 C-42.9375 96.4375 -42.9375 96.4375 -56.51538086 96.56811523 C-61.96984863 96.6270752 -61.96984863 96.6270752 -64.52003479 96.65589905 C-66.30830553 96.67517115 -68.09659805 96.6924809 -69.88490295 96.70826721 C-72.58732096 96.73249856 -75.28960529 96.76287759 -77.99194336 96.79467773 C-78.39298389 96.79756286 -78.39298389 96.79756286 -80.42249203 96.81216335 C-85.88597366 96.88597366 -85.88597366 96.88597366 -87 98 C-87.02089128 100.14583277 -86.99061235 102.29222291 -86.9375 104.4375 C-86.88260904 115.25101833 -88.45371001 124.15477001 -95.1875 132.8125 C-101.7803381 137.94026297 -109.19073993 138.43314305 -117.28515625 138.29296875 C-118.22685165 138.28872391 -119.16854706 138.28447906 -120.13877869 138.28010559 C-123.11365718 138.26346216 -126.08783014 138.22583772 -129.0625 138.1875 C-131.0930891 138.1724346 -133.12368893 138.15874946 -135.15429688 138.14648438 C-140.10313181 138.11360578 -145.05144675 138.0619244 -150 138 C-148.43438933 129.55185666 -145.6752348 119.81621504 -139 114 C-131.36832812 111.36288469 -122.91591959 112.18798962 -115 113 C-114.67 112.34 -114.34 111.68 -114 111 C-113.34 111 -112.68 111 -112 111 C-112.00222061 109.98744644 -112.00444122 108.97489288 -112.00672913 107.93165588 C-112.02696054 98.4106235 -112.04197214 88.88959545 -112.05181217 79.36854649 C-112.057041 74.47314626 -112.06413864 69.57776332 -112.07543945 64.68237305 C-112.08626834 59.96212022 -112.09227684 55.24188408 -112.09487724 50.5216198 C-112.09673149 48.71661046 -112.10035209 46.91160208 -112.10573006 45.10659981 C-112.11294052 42.58740356 -112.11399094 40.0682771 -112.11352539 37.54907227 C-112.11712067 36.79525772 -112.12071594 36.04144318 -112.12442017 35.26478577 C-112.11405216 30.11405216 -112.11405216 30.11405216 -111 29 C-109.29227642 28.91286169 -107.58101351 28.89299993 -105.87109375 28.90234375 C-105.35385742 28.90395508 -105.35385742 28.90395508 -102.73632812 28.91210938 C-101.64771484 28.92048828 -100.55910156 28.92886719 -99.4375 28.9375 C-98.89125977 28.93975586 -98.89125977 28.93975586 -96.12695312 28.95117188 C-93.41791505 28.96300174 -90.70898401 28.97948457 -88 29 C-87.82784818 32.99978281 -87.66336156 36.9998493 -87.5 41 C-87.45230469 42.10601562 -87.40460938 43.21203125 -87.35546875 44.3515625 C-86.99791176 53.23940756 -86.9480287 62.10713328 -87 71 C-80.08083575 71.16952239 -73.16149204 71.32915617 -66.24194336 71.48217773 C-63.89195691 71.53528204 -61.54201897 71.59058297 -59.19213867 71.64819336 C-55.79877174 71.73099353 -52.40530423 71.80568092 -49.01171875 71.87890625 C-47.97480392 71.90594131 -46.9378891 71.93297638 -45.86955261 71.96083069 C-39.17663628 72.09530563 -32.65218059 71.74773782 -26 71 C-26 68.03 -26 65.06 -26 62 C-27.2367749 61.97494385 -28.4735498 61.9498877 -29.74780273 61.92407227 C-34.31936713 61.83017747 -38.89077318 61.72991371 -43.4621582 61.62768555 C-45.44389146 61.58426856 -47.42566378 61.54259863 -49.4074707 61.50268555 C-52.2496317 61.44514617 -55.09159483 61.38140555 -57.93359375 61.31640625 C-58.82525742 61.29969376 -59.71692108 61.28298126 -60.63560486 61.26576233 C-66.88612829 61.11387171 -66.88612829 61.11387171 -68 60 C-68.12607742 57.29353805 -68.18870061 54.6140694 -68.203125 51.90625 C-68.20882507 51.0855603 -68.21452515 50.26487061 -68.22039795 49.41931152 C-68.22986894 47.67408544 -68.23639022 45.9288413 -68.24023438 44.18359375 C-68.24985905 41.53873266 -68.28082724 38.89467577 -68.3125 36.25 C-68.31903814 34.55208793 -68.32428542 32.85417031 -68.328125 31.15625 C-68.3404718 30.37463501 -68.3528186 29.59302002 -68.36553955 28.78771973 C-68.33320637 20.63324691 -66.09697592 13.41232454 -61 7 C-60.34 7 -59.68 7 -59 7 C-59 6.34 -59 5.68 -59 5 C-57.46378265 4.17724328 -55.92071368 3.36727423 -54.375 2.5625 C-53.51648438 2.11003906 -52.65796875 1.65757812 -51.7734375 1.19140625 C-37.18849809 -5.07395505 -7.9781636 -0.18553869 0 0 Z M-43 23 C-43.17163731 25.56292317 -43.23264558 28.00345857 -43.1875 30.5625 C-43.18685547 31.26052734 -43.18621094 31.95855469 -43.18554688 32.67773438 C-43.14031158 37.85968842 -43.14031158 37.85968842 -42 39 C-39.3226862 39.09981214 -36.67695825 39.13879875 -34 39.125 C-33.62488281 39.12693359 -33.62488281 39.12693359 -31.7265625 39.13671875 C-26.12661053 39.12661053 -26.12661053 39.12661053 -25 38 C-24.90018786 35.3226862 -24.86120125 32.67695825 -24.875 30 C-24.87113281 29.24976563 -24.86726563 28.49953125 -24.86328125 27.7265625 C-24.87338947 22.12661053 -24.87338947 22.12661053 -26 21 C-28.49238569 20.87346802 -30.94470441 20.81480175 -33.4375 20.8125 C-34.13166016 20.80025391 -34.82582031 20.78800781 -35.54101562 20.77539062 C-40.76023317 20.76023317 -40.76023317 20.76023317 -43 23 Z " fill="#C9A84C" transform="translate(338,163)"/>
<path d="M0 0 C1.16942727 -0.00199105 2.33885454 -0.0039821 3.54371899 -0.00603348 C4.8345572 -0.00312064 6.12539541 -0.0002078 7.45534992 0.00279331 C8.83562261 0.00235746 10.21589522 0.0014823 11.59616739 0.00020415 C15.39752551 -0.00203808 19.19885561 0.00197678 23.00021017 0.00698221 C27.09631023 0.0112904 31.19240864 0.00984002 35.28851032 0.00907993 C42.38810509 0.00855493 49.48769068 0.01169924 56.58728313 0.01731777 C66.85217168 0.025436 77.11705579 0.02804832 87.3819472 0.02930576 C104.03502345 0.03149577 120.68809481 0.03815448 137.3411684 0.04760838 C153.52053013 0.05678381 169.69989054 0.063864 185.87925434 0.06811619 C186.87612269 0.06837891 187.87299105 0.06864164 188.90006753 0.06891232 C193.90093542 0.07021733 198.90180331 0.07148105 203.90267122 0.07272422 C245.40666913 0.08309525 286.91066165 0.10071219 328.41465473 0.12304783 C328.41465473 1.11304783 328.41465473 2.10304783 328.41465473 3.12304783 C326.41465473 4.81054783 326.41465473 4.81054783 324.41465473 6.12304783 C324.41465473 5.13304783 324.41465473 4.14304783 324.41465473 3.12304783 C269.63465473 2.95804783 269.63465473 2.95804783 -7.58534527 2.12304783 C-7.58534527 44.36304783 -7.58534527 86.60304783 -7.58534527 130.12304783 C-7.91534527 130.12304783 -8.24534527 130.12304783 -8.58534527 130.12304783 C-8.58534527 87.55304783 -8.58534527 44.98304783 -8.58534527 1.12304783 C-5.453317 0.07903841 -3.28621459 -0.00123125 0 0 Z " fill="#0D3658" transform="translate(8.585345268249512,-0.1230478286743164)"/>
<path d="M0 0 C0.34192383 0.00225586 0.34192383 0.00225586 2.07226562 0.01367188 C3.73571604 0.0253044 5.3991205 0.04323306 7.0625 0.0625 C7.0625 0.7225 7.0625 1.3825 7.0625 2.0625 C6.01449219 2.09988281 4.96648438 2.13726562 3.88671875 2.17578125 C2.50777695 2.24144515 1.12887229 2.30789235 -0.25 2.375 C-0.59514648 2.3862793 -0.59514648 2.3862793 -2.34179688 2.44335938 C-7.46301281 2.71550128 -7.46301281 2.71550128 -9.87109375 4.4765625 C-11.1317418 6.35137242 -11.64858962 7.82344452 -11.9375 10.0625 C-11.7725 10.3925 -11.7725 10.3925 -10.9375 12.0625 C-11.5975 12.0625 -12.2575 12.0625 -12.9375 12.0625 C-13.2675 12.7225 -13.5975 13.3825 -13.9375 14.0625 C-17.73333617 14.99037106 -20.22560229 14.99881115 -23.9375 14.0625 C-25.49152636 13.97269148 -27.04885104 13.93187794 -28.60546875 13.9296875 C-29.05245117 13.92904297 -29.05245117 13.92904297 -31.31445312 13.92578125 C-32.24193359 13.92964844 -33.16941406 13.93351563 -34.125 13.9375 C-35.03314453 13.93363281 -35.94128906 13.92976562 -36.87695312 13.92578125 C-42.6417248 13.93403432 -48.21965052 14.326597 -53.9375 15.0625 C-56.58630009 25.04475489 -55.76984891 34.76856693 -55.234375 44.96875 C-54.9520094 50.37792232 -54.81592147 55.77131155 -54.8125 61.1875 C-54.80814941 61.90244629 -54.80379883 62.61739258 -54.79931641 63.35400391 C-54.8099175 67.35832626 -55.16644761 71.13380447 -55.9375 75.0625 C-51.98050918 76.35939825 -47.97877603 76.21546754 -43.8637085 76.22071838 C-43.04358032 76.22565636 -42.22345215 76.23059434 -41.37847161 76.23568195 C-38.62699093 76.25105511 -35.87553358 76.2594171 -33.12402344 76.26782227 C-31.15301305 76.27740093 -29.18200471 76.287411 -27.21099854 76.29782104 C-21.85604742 76.32487742 -16.50108748 76.34588305 -11.14610577 76.36582303 C-5.55134661 76.38767804 0.04338534 76.41506911 5.63812256 76.44187927 C16.23443188 76.49181271 26.8307563 76.53674914 37.42709517 76.57990164 C49.48985427 76.62926844 61.55258608 76.68418864 73.61531878 76.73958123 C98.43102057 76.85341127 123.24674884 76.96005112 148.0625 77.0625 C148.0625 70.1325 148.0625 63.2025 148.0625 56.0625 C144.7625 56.0625 141.4625 56.0625 138.0625 56.0625 C138.0625 55.4025 138.0625 54.7425 138.0625 54.0625 C142.02638638 53.98627142 145.1898408 54.0943352 149.0625 55.0625 C149.0625 62.6525 149.0625 70.2425 149.0625 78.0625 C122.53331702 78.21612954 96.00411018 78.36437918 69.47485733 78.5054636 C57.15737467 78.57110486 44.83990801 78.63866018 32.52246094 78.71069336 C21.78885154 78.77345933 11.05522949 78.83266271 0.32157683 78.88755554 C-5.36383819 78.91675653 -11.04923063 78.94776349 -16.73461151 78.98303413 C-22.08278284 79.01615659 -27.43095806 79.04452566 -32.7791748 79.06920624 C-34.74482441 79.07912293 -36.71046604 79.09079506 -38.67609406 79.10433006 C-41.35468142 79.12251498 -44.03322559 79.13444992 -46.71185303 79.14479065 C-47.10290407 79.14819254 -47.10290407 79.14819254 -49.08185935 79.16540819 C-52.50713806 79.17252184 -55.66525151 79.15227571 -58.9375 78.0625 C-58.96062635 69.4744428 -58.97841658 60.88639851 -58.98931217 52.29831791 C-58.99454036 48.310928 -59.00163684 44.32355933 -59.01293945 40.33618164 C-59.02377061 36.49124886 -59.02977732 32.64633655 -59.03237724 28.80138969 C-59.03423108 27.33131017 -59.03785091 25.86123182 -59.04323006 24.39116096 C-59.05044355 22.33895533 -59.05149081 20.28683533 -59.05102539 18.23461914 C-59.053246 17.06435684 -59.05546661 15.89409454 -59.05775452 14.68836975 C-58.9375 12.0625 -58.9375 12.0625 -57.9375 11.0625 C-54.83664779 10.90208807 -51.75562421 10.80286598 -48.65234375 10.74609375 C-47.72152481 10.72531265 -46.79070587 10.70453156 -45.8316803 10.68312073 C-42.84619818 10.61752069 -39.86062516 10.55869198 -36.875 10.5 C-34.85611024 10.4568247 -32.8372298 10.41321075 -30.81835938 10.36914062 C-25.85816703 10.26182871 -20.89788291 10.16059112 -15.9375 10.0625 C-15.6075 7.0925 -15.2775 4.1225 -14.9375 1.0625 C-9.89895894 0.23038724 -5.1249338 -0.0453534 0 0 Z " fill="#C9A84C" transform="translate(58.9375,180.9375)"/>
<path d="M0 0 C0.98484375 -0.00128906 1.9696875 -0.00257813 2.984375 -0.00390625 C4.02078125 -0.00003906 5.0571875 0.00382813 6.125 0.0078125 C6.64320312 0.00587891 6.64320312 0.00587891 9.265625 -0.00390625 C10.25046875 -0.00261719 11.2353125 -0.00132812 12.25 0 C13.16007812 0.00112793 14.07015625 0.00225586 15.0078125 0.00341797 C17.125 0.1328125 17.125 0.1328125 18.125 1.1328125 C18.21213831 2.84053608 18.23200007 4.55179899 18.22265625 6.26171875 C18.22015869 7.19314697 18.21766113 8.1245752 18.21508789 9.08422852 C18.20598389 10.27588623 18.19687988 11.46754395 18.1875 12.6953125 C18.166875 16.4696875 18.14625 20.2440625 18.125 24.1328125 C10.205 24.1328125 2.285 24.1328125 -5.875 24.1328125 C-5.895625 20.3584375 -5.91625 16.5840625 -5.9375 12.6953125 C-5.946604 11.50365479 -5.95570801 10.31199707 -5.96508789 9.08422852 C-5.96758545 8.15280029 -5.97008301 7.22137207 -5.97265625 6.26171875 C-5.97789307 5.30338135 -5.98312988 4.34504395 -5.98852539 3.35766602 C-5.77720219 -0.78381429 -3.62198603 0.00448901 0 0 Z " fill="#C9A84C" transform="translate(41.875,145.8671875)"/>
<path d="M0 0 C0.98484375 -0.00128906 1.9696875 -0.00257813 2.984375 -0.00390625 C4.02078125 -0.00003906 5.0571875 0.00382813 6.125 0.0078125 C6.64320312 0.00587891 6.64320312 0.00587891 9.265625 -0.00390625 C10.25046875 -0.00261719 11.2353125 -0.00132812 12.25 0 C13.16007812 0.00112793 14.07015625 0.00225586 15.0078125 0.00341797 C17.125 0.1328125 17.125 0.1328125 18.125 1.1328125 C18.21213831 2.84053608 18.23200007 4.55179899 18.22265625 6.26171875 C18.21943359 7.29619141 18.21621094 8.33066406 18.21289062 9.39648438 C18.20451172 10.48509766 18.19613281 11.57371094 18.1875 12.6953125 C18.18298828 13.78779297 18.17847656 14.88027344 18.17382812 16.00585938 C18.16199826 18.71489745 18.14551543 21.42382849 18.125 24.1328125 C14.31251574 24.16168486 10.5000593 24.17956742 6.6875 24.1953125 C5.59888672 24.20369141 4.51027344 24.21207031 3.38867188 24.22070312 C2.35419922 24.22392578 1.31972656 24.22714844 0.25390625 24.23046875 C-0.70443115 24.23570557 -1.66276855 24.24094238 -2.65014648 24.24633789 C-4.875 24.1328125 -4.875 24.1328125 -5.875 23.1328125 C-5.9741657 21.51023706 -6.00579777 19.88341419 -6.0078125 18.2578125 C-6.00910156 17.27296875 -6.01039063 16.288125 -6.01171875 15.2734375 C-6.00785156 14.23703125 -6.00398437 13.200625 -6 12.1328125 C-6.00193359 11.61460937 -6.00193359 11.61460937 -6.01171875 8.9921875 C-6.01042969 8.00734375 -6.00914062 7.0225 -6.0078125 6.0078125 C-6.00668457 5.09773437 -6.00555664 4.18765625 -6.00439453 3.25 C-5.75735363 -0.79214854 -3.51772145 0.00435978 0 0 Z " fill="#C9A84C" transform="translate(5.875,145.8671875)"/>
<path d="M0 0 C3.774375 -0.020625 7.54875 -0.04125 11.4375 -0.0625 C12.62915771 -0.071604 13.82081543 -0.08070801 15.04858398 -0.09008789 C15.5142981 -0.09133667 15.5142981 -0.09133667 17.87109375 -0.09765625 C18.82943115 -0.10289307 19.78776855 -0.10812988 20.77514648 -0.11352539 C23 0 23 0 24 1 C24.09899523 2.54955559 24.13079524 4.10353673 24.1328125 5.65625 C24.13345703 6.12611328 24.13345703 6.12611328 24.13671875 8.50390625 C24.13285156 9.49261719 24.12898438 10.48132813 24.125 11.5 C24.12693359 11.99435547 24.12693359 11.99435547 24.13671875 14.49609375 C24.13542969 15.43582031 24.13414062 16.37554687 24.1328125 17.34375 C24.13168457 18.21193359 24.13055664 19.08011719 24.12939453 19.97460938 C24 22 24 22 23 23 C21.29227642 23.08713831 19.58101351 23.10700007 17.87109375 23.09765625 C16.93966553 23.09515869 16.0082373 23.09266113 15.04858398 23.09008789 C14.45275513 23.08553589 14.45275513 23.08553589 11.4375 23.0625 C7.663125 23.041875 3.88875 23.02125 0 23 C0 15.41 0 7.82 0 0 Z " fill="#C9A84C" transform="translate(293,128)"/>
<path d="M0 0 C58.41 0 116.82 0 177 0 C177 0.33 177 0.66 177 1 C148.62 1.165 148.62 1.165 5 2 C3.45302718 7.41440487 2.74121686 10.64992428 2.68115234 16.02880859 C2.67613236 16.3625093 2.67613236 16.3625093 2.65072823 18.05123711 C2.61999248 20.25029613 2.60285338 22.44923229 2.5859375 24.6484375 C2.56706445 26.21011298 2.54739424 27.771779 2.52697754 29.33343506 C2.47518242 33.49110037 2.43548712 37.64879575 2.39870453 41.80661774 C2.36712609 45.22813701 2.32893217 48.64956928 2.29074287 52.07102013 C2.17235016 62.71385356 2.07907921 73.35680695 2 84 C1.99033203 85.29736084 1.98066406 86.59472168 1.97070312 87.93139648 C1.9208482 94.99593514 1.88789454 102.06030086 1.875 109.125 C1.87232117 109.9690741 1.86964233 110.81314819 1.86688232 111.68280029 C1.86123235 113.97868615 1.86259665 116.27442728 1.8671875 118.5703125 C1.86831543 119.80539551 1.86944336 121.04047852 1.87060547 122.31298828 C2 125 2 125 3 126 C4.47250645 126.12232644 5.95065711 126.1777456 7.42797852 126.20532227 C8.38208618 126.22550415 9.33619385 126.24568604 10.31921387 126.26647949 C11.32891235 126.28295532 12.33861084 126.29943115 13.37890625 126.31640625 C14.30183472 126.33505737 15.22476318 126.3537085 16.17565918 126.3729248 C19.63783799 126.44145049 23.10018124 126.50145328 26.5625 126.5625 C34.296875 126.706875 42.03125 126.85125 50 127 C50 101.92 50 76.84 50 51 C50.33 51 50.66 51 51 51 C51 76.41 51 101.82 51 128 C34.17 128 17.34 128 0 128 C0 85.76 0 43.52 0 0 Z " fill="#0D3658" transform="translate(1,2)"/>
<path d="M0 0 C2.51834106 -0.32279968 2.51834106 -0.32279968 5.73486328 -0.2487793 C6.93595734 -0.22853195 8.13705139 -0.20828461 9.37454224 -0.18742371 C10.02559433 -0.16874489 10.02559433 -0.16874489 13.3203125 -0.07421875 C14.66264193 -0.04618993 16.00499992 -0.01949906 17.34738159 0.00590515 C20.88233622 0.07640887 24.41661014 0.16511783 27.9510498 0.25756836 C31.55697577 0.34868334 35.1632484 0.4226528 38.76953125 0.49804688 C45.84678897 0.64854393 52.92346993 0.81826806 60 1 C60.165 1.33 60.165 1.33 61 3 C41.86 3 22.72 3 3 3 C3.01160156 9.82300781 3.02320312 16.64601563 3.03515625 23.67578125 C3.0402642 27.99153741 3.04507806 32.30728985 3.04882812 36.62304688 C3.05481197 43.47714001 3.0619001 50.33121982 3.07543945 57.18530273 C3.08628394 62.70956252 3.09228017 68.23380802 3.09487724 73.75807762 C3.09672866 75.86845309 3.10034388 77.97882775 3.10573006 80.08919716 C3.11296116 83.03905569 3.11399006 85.98885477 3.11352539 88.9387207 C3.11712067 89.81625504 3.12071594 90.69378937 3.12442017 91.59791565 C3.11863022 94.98204634 3.07770423 97.76688732 2 101 C-18.79 101 -39.58 101 -61 101 C-61 100.34 -61 99.68 -61 99 C-60.66951408 98.99484627 -60.66951408 98.99484627 -58.99705505 98.96876526 C-52.10235342 98.86037813 -45.207774 98.74580743 -38.31323242 98.62768555 C-35.74196943 98.58443974 -33.17067964 98.54275755 -30.59936523 98.50268555 C-26.89819267 98.44473175 -23.19715372 98.38110993 -19.49609375 98.31640625 C-18.35103867 98.29969376 -17.20598358 98.28298126 -16.02622986 98.26576233 C-15.48593391 98.25578972 -15.48593391 98.25578972 -12.75170898 98.20532227 C-12.27982903 98.19755013 -12.27982903 98.19755013 -9.89183044 98.15821838 C-6.55461189 97.97563184 -3.30125897 97.51210199 0 97 C-0.10737855 85.03917264 -0.21998671 73.07840718 -0.33933926 61.11769295 C-0.39458896 55.5643223 -0.44801223 50.01094641 -0.49731445 44.45751953 C-0.5449278 39.10179826 -0.5972695 33.74614247 -0.65294075 28.39049911 C-0.67337805 26.34351092 -0.69208882 24.29650476 -0.70907402 22.24948502 C-0.7330876 19.39037813 -0.76314629 16.53139572 -0.79467773 13.67236328 C-0.79755547 13.24582458 -0.79755547 13.24582458 -0.81211853 11.08728027 C-0.88594784 5.22810432 -0.88594784 5.22810432 -2 3 C-1.34 2.01 -0.68 1.02 0 0 Z " fill="#0D3658" transform="translate(109,298)"/>
<path d="M0 0 C0.9583374 0.00523682 1.9166748 0.01047363 2.90405273 0.01586914 C3.42128906 0.01748047 3.42128906 0.01748047 6.03881836 0.02563477 C7.12743164 0.03401367 8.21604492 0.04239258 9.33764648 0.05102539 C9.88388672 0.05328125 9.88388672 0.05328125 12.64819336 0.06469727 C15.35723144 0.07652713 18.06616248 0.09300996 20.77514648 0.11352539 C20.94729831 4.1133082 21.11178492 8.11337469 21.27514648 12.11352539 C21.3228418 13.21954102 21.37053711 14.32555664 21.41967773 15.46508789 C21.77723472 24.35293295 21.82711778 33.22065867 21.77514648 42.11352539 C28.69431074 42.28304778 35.61365445 42.44268156 42.53320312 42.59570312 C44.88318957 42.64880743 47.23312752 42.70410836 49.58300781 42.76171875 C52.97637474 42.84451892 56.36984226 42.91920631 59.76342773 42.99243164 C60.80034256 43.01946671 61.83725739 43.04650177 62.90559387 43.07435608 C69.59851021 43.20883102 76.12296589 42.86126321 82.77514648 42.11352539 C82.77514648 39.14352539 82.77514648 36.17352539 82.77514648 33.11352539 C76.01014648 32.94852539 76.01014648 32.94852539 41.77514648 32.11352539 C41.77514648 31.78352539 41.77514648 31.45352539 41.77514648 31.11352539 C55.96514648 31.11352539 70.15514648 31.11352539 84.77514648 31.11352539 C84.77514648 35.73352539 84.77514648 40.35352539 84.77514648 45.11352539 C62.99514648 45.11352539 41.21514648 45.11352539 18.77514648 45.11352539 C17.65014648 29.36352539 17.65014648 29.36352539 17.89624023 23.40258789 C17.94458008 22.13930664 17.99291992 20.87602539 18.04272461 19.57446289 C18.09879883 18.30860352 18.15487305 17.04274414 18.21264648 15.73852539 C18.26608915 14.40522026 18.31882634 13.07188666 18.37084961 11.73852539 C18.4987292 8.52991021 18.63594131 5.32166916 18.77514648 2.11352539 C12.17514648 2.11352539 5.57514648 2.11352539 -1.22485352 2.11352539 C-1.55485352 28.84352539 -1.88485352 55.57352539 -2.22485352 83.11352539 C-2.88485352 83.44352539 -2.88485352 83.44352539 -6.22485352 85.11352539 C-5.89485352 84.12352539 -5.56485352 83.13352539 -5.22485352 82.11352539 C-4.56485352 82.11352539 -3.90485352 82.11352539 -3.22485352 82.11352539 C-3.22707413 81.10097183 -3.22929474 80.08841827 -3.23158264 79.04518127 C-3.25181406 69.52414889 -3.26682565 60.00312084 -3.27666569 50.48207188 C-3.28189452 45.58667165 -3.28899216 40.69128871 -3.30029297 35.79589844 C-3.31112186 31.07564561 -3.31713035 26.35540947 -3.31973076 21.63514519 C-3.32158501 19.83013585 -3.32520561 18.02512747 -3.33058357 16.2201252 C-3.33779404 13.70092895 -3.33884446 11.18180249 -3.33837891 8.66259766 C-3.34197418 7.90878311 -3.34556946 7.15496857 -3.34927368 6.37831116 C-3.33677739 0.17026243 -3.33677739 0.17026243 0 0 Z " fill="#C9A84C" transform="translate(229.224853515625,191.886474609375)"/>
<path d="M0 0 C0 31.68 0 63.36 0 96 C-42.9375 96.4375 -42.9375 96.4375 -56.51538086 96.56811523 C-61.96984863 96.6270752 -61.96984863 96.6270752 -64.52003479 96.65589905 C-66.30830553 96.67517115 -68.09659805 96.6924809 -69.88490295 96.70826721 C-72.58732096 96.73249856 -75.28960529 96.76287759 -77.99194336 96.79467773 C-78.39298389 96.79756286 -78.39298389 96.79756286 -80.42249203 96.81216335 C-85.88597366 96.88597366 -85.88597366 96.88597366 -87 98 C-87.07271741 100.35313555 -87.08370868 102.70833668 -87.0625 105.0625 C-87.05347656 106.35285156 -87.04445312 107.64320313 -87.03515625 108.97265625 C-87.02355469 109.97167969 -87.01195312 110.97070312 -87 112 C-87.66 111.67 -88.32 111.34 -89 111 C-89.02685095 108.52076199 -89.04676547 106.0418116 -89.0625 103.5625 C-89.06668945 103.20897461 -89.06668945 103.20897461 -89.08789062 101.41992188 C-89.09653588 99.61306441 -89.05220011 97.80612397 -89 96 C-87.21142938 94.21142938 -84.79876866 94.88009421 -82.41790771 94.87557983 C-82.0176236 94.87737747 -82.0176236 94.87737747 -79.99194336 94.88647461 C-79.15299026 94.88632858 -78.31403717 94.88618256 -77.44966125 94.8860321 C-74.66302956 94.8867315 -71.87646384 94.89452515 -69.08984375 94.90234375 C-67.16313209 94.90420783 -65.23641995 94.90563178 -63.30970764 94.90663147 C-58.22812603 94.91045741 -53.1465728 94.92028834 -48.06500244 94.93133545 C-42.88383366 94.94154794 -37.70266031 94.94612874 -32.52148438 94.95117188 C-22.34764375 94.96191054 -12.17382423 94.97898787 -2 95 C-2.02996567 94.07688522 -2.05993134 93.15377045 -2.09080505 92.2026825 C-2.71243723 72.73385051 -3.14543713 53.29333579 -3.0625 33.8125 C-3.05745099 31.65950631 -3.05289437 29.5065114 -3.04882812 27.35351562 C-3.03814605 22.23564529 -3.02109044 17.11783757 -3 12 C-2.67 12 -2.34 12 -2 12 C-1.67 8.37 -1.34 4.74 -1 1 C-17.5 1.33 -34 1.66 -51 2 C-51.33 2.66 -51.66 3.32 -52 4 C-52.66 3.34 -53.32 2.68 -54 2 C-37.58715723 -5.24096005 -15.60067683 -0.36280644 0 0 Z " fill="#C9A84C" transform="translate(338,163)"/>
<path d="M0 0 C24.09 0 48.18 0 73 0 C73 0.33 73 0.66 73 1 C49.24 1 25.48 1 1 1 C2.125 15.625 2.125 15.625 3 21 C3.79513504 20.99555878 4.59027008 20.99111755 5.40950012 20.98654175 C12.89907596 20.946485 20.38859993 20.9160258 27.87825489 20.89637566 C31.72886025 20.88593375 35.57937718 20.87176721 39.42993164 20.84912109 C43.14520323 20.82740709 46.86038969 20.81543444 50.57571983 20.81024551 C51.99391711 20.80654715 53.41210968 20.79932525 54.83027077 20.78853989 C56.81494233 20.77404498 58.79969935 20.77318325 60.78442383 20.77294922 C61.91471512 20.768508 63.04500641 20.76406677 64.20954895 20.75949097 C67 21 67 21 70 23 C69.835 23.825 69.835 23.825 69 28 C68.63508957 27.51391769 68.27017914 27.02783539 67.89421082 26.52702332 C65.17517947 24.33506863 63.15814542 24.60114261 59.69262695 24.56762695 C59.04206581 24.55772987 59.04206581 24.55772987 55.74983215 24.50764465 C54.32931665 24.50087483 52.90879958 24.49442797 51.48828125 24.48828125 C50.03523739 24.47143671 48.58220812 24.45328676 47.12919617 24.43388367 C43.30700236 24.38635258 39.4848677 24.35656365 35.66247559 24.33044434 C31.76119299 24.30065427 27.86011429 24.25411868 23.95898438 24.20898438 C16.30609068 24.12291604 8.65318222 24.05558681 1 24 C-1 20 -1 20 0 0 Z " fill="#C9A84C" transform="translate(93,192)"/>
<path d="M0 0 C3.3 0 6.6 0 10 0 C10 6.93 10 13.86 10 21 C-55.34 21 -120.68 21 -188 21 C-188 20.67 -188 20.34 -188 20 C-176.69315715 19.22110756 -165.46168396 18.86162438 -154.12988281 18.90234375 C-152.5228734 18.90426985 -150.91586338 18.90573036 -149.30885315 18.9067688 C-145.88676038 18.9098956 -142.4646932 18.91611096 -139.04261017 18.92483521 C-133.61888329 18.93851943 -128.19516443 18.94428501 -122.77142334 18.94897461 C-111.26427104 18.96000428 -99.75713884 18.9795515 -88.25 19 C-75.80739996 19.0220915 -63.36480812 19.0426449 -50.92219234 19.05341816 C-45.54258741 19.05836564 -40.16302103 19.06817118 -34.78343153 19.08184814 C-31.42750527 19.08936187 -28.07158411 19.09263396 -24.71565056 19.0948143 C-23.17303847 19.09666949 -21.63042722 19.10023608 -20.08782387 19.10574722 C-11.01416515 19.13711619 -2.03852648 18.85776546 7 18 C7.87766131 15.05725326 7.95359025 13.67513172 7.5 10.5 C7.06227857 7.43594998 6.97789812 5.83917188 8 3 C5.39902318 1.69951159 2.86044938 1.43528578 0 1 C0 0.67 0 0.34 0 0 Z " fill="#C9A84C" transform="translate(197,237)"/>
<path d="M0 0 C0.46889648 0.00483398 0.46889648 0.00483398 2.84179688 0.02929688 C3.81826172 0.05443359 4.79472656 0.07957031 5.80078125 0.10546875 C6.78884766 0.11900391 7.77691406 0.13253906 8.79492188 0.14648438 C11.23492356 0.18184672 13.67382844 0.23119842 16.11328125 0.29296875 C19.88610567 6.9669941 21.08029191 11.68149271 19.11328125 19.29296875 C17.05078125 21.98046875 17.05078125 21.98046875 15.11328125 23.29296875 C14.45328125 22.96296875 13.79328125 22.63296875 13.11328125 22.29296875 C12.12328125 22.62296875 11.13328125 22.95296875 10.11328125 23.29296875 C10.11328125 22.63296875 10.11328125 21.97296875 10.11328125 21.29296875 C9.10265625 21.64359375 8.09203125 21.99421875 7.05078125 22.35546875 C3.1714082 23.480723 0.08391291 23.05655176 -3.88671875 22.29296875 C-4.87671875 22.29296875 -5.86671875 22.29296875 -6.88671875 22.29296875 C-7.8466574 18.22097095 -8.08347551 14.34756305 -8.13671875 10.16796875 C-8.1625 8.94851562 -8.18828125 7.7290625 -8.21484375 6.47265625 C-7.88671875 3.29296875 -7.88671875 3.29296875 -6.67163086 1.61254883 C-4.32025366 -0.12581716 -2.90422707 -0.05280413 0 0 Z M-2.88671875 3.29296875 C-3.05835606 5.85589192 -3.11936433 8.29642732 -3.07421875 10.85546875 C-3.07357422 11.55349609 -3.07292969 12.25152344 -3.07226562 12.97070312 C-3.02703033 18.15265717 -3.02703033 18.15265717 -1.88671875 19.29296875 C0.79059505 19.39278089 3.436323 19.4317675 6.11328125 19.41796875 C6.48839844 19.41990234 6.48839844 19.41990234 8.38671875 19.4296875 C13.98667072 19.41957928 13.98667072 19.41957928 15.11328125 18.29296875 C15.21309339 15.61565495 15.25208 12.969927 15.23828125 10.29296875 C15.24214844 9.54273438 15.24601562 8.7925 15.25 8.01953125 C15.23989178 2.41957928 15.23989178 2.41957928 14.11328125 1.29296875 C11.62089556 1.16643677 9.16857684 1.1077705 6.67578125 1.10546875 C5.98162109 1.09322266 5.28746094 1.08097656 4.57226562 1.06835938 C-0.64695192 1.05320192 -0.64695192 1.05320192 -2.88671875 3.29296875 Z " fill="#C9A84C" transform="translate(297.88671875,182.70703125)"/>
<path d="M0 0 C3.774375 -0.020625 7.54875 -0.04125 11.4375 -0.0625 C12.62915771 -0.071604 13.82081543 -0.08070801 15.04858398 -0.09008789 C15.5142981 -0.09133667 15.5142981 -0.09133667 17.87109375 -0.09765625 C18.82943115 -0.10289307 19.78776855 -0.10812988 20.77514648 -0.11352539 C23 0 23 0 24 1 C24.09899523 2.54955559 24.13079524 4.10353673 24.1328125 5.65625 C24.13345703 6.12611328 24.13345703 6.12611328 24.13671875 8.50390625 C24.13285156 9.49261719 24.12898438 10.48132813 24.125 11.5 C24.12693359 11.99435547 24.12693359 11.99435547 24.13671875 14.49609375 C24.13542969 15.43582031 24.13414062 16.37554687 24.1328125 17.34375 C24.13168457 18.21193359 24.13055664 19.08011719 24.12939453 19.97460938 C24 22 24 22 23 23 C21.29227642 23.08713831 19.58101351 23.10700007 17.87109375 23.09765625 C16.93966553 23.09515869 16.0082373 23.09266113 15.04858398 23.09008789 C14.45275513 23.08553589 14.45275513 23.08553589 11.4375 23.0625 C7.663125 23.041875 3.88875 23.02125 0 23 C0 15.41 0 7.82 0 0 Z M3 4 C2.80495542 6.10348074 2.61921504 8.20782585 2.4375 10.3125 C2.33308594 11.48425781 2.22867187 12.65601563 2.12109375 13.86328125 C2 17 2 17 3 20 C3.45181641 19.99419922 3.45181641 19.99419922 5.73828125 19.96484375 C6.91777344 19.95582031 8.09726562 19.94679687 9.3125 19.9375 C10.48425781 19.92589844 11.65601563 19.91429687 12.86328125 19.90234375 C16 20 16 20 19 21 C21.49210439 18.50789561 21.26015661 16.99639212 21.2734375 13.58984375 C21.26570313 12.90019531 21.25796875 12.21054688 21.25 11.5 C21.25773437 10.81035156 21.26546875 10.12070313 21.2734375 9.41015625 C21.25333293 4.25333293 21.25333293 4.25333293 19 2 C16.828125 1.734375 16.828125 1.734375 14.25 1.75 C13.82976562 1.74742187 13.82976562 1.74742187 11.703125 1.734375 C8.5857341 2.04070821 5.93125527 2.92006385 3 4 Z " fill="#C9A84C" transform="translate(293,128)"/>
<path d="M0 0 C14.19 0 28.38 0 43 0 C43 22.44 43 44.88 43 68 C42.67 68 42.34 68 42 68 C41.67 46.22 41.34 24.44 41 2 C34.565 1.835 34.565 1.835 2 1 C1.97680743 7.6304982 1.95696719 14.26085069 1.94506836 20.89135742 C1.94009803 23.13810712 1.93331944 25.38485368 1.92456055 27.6315918 C1.87207958 41.45878374 2.08145561 55.20112283 3 69 C2.01 69 1.02 69 0 69 C0 46.23 0 23.46 0 0 Z " fill="#0D3658" transform="translate(1,278)"/>
<path d="M0 0 C0.83595703 0.00451172 1.67191406 0.00902344 2.53320312 0.01367188 C4.58466649 0.02539452 6.63609273 0.04332797 8.6875 0.0625 C9.06883299 2.0539056 9.40075582 4.05529077 9.6875 6.0625 C9.3575 6.3925 9.0275 6.7225 8.6875 7.0625 C8.778416 9.76358504 8.92490766 12.43180311 9.125 15.125 C9.15110352 15.50430664 9.15110352 15.50430664 9.28320312 17.42382812 C9.41325835 19.30371722 9.54978038 21.18315685 9.6875 23.0625 C5.33259436 25.22287476 1.32416057 25.33239668 -3.4375 25.25 C-4.15292969 25.24935547 -4.86835937 25.24871094 -5.60546875 25.24804688 C-8.76409104 25.22147902 -11.29680662 25.06773113 -14.3125 24.0625 C-14.3125 19.1125 -14.3125 14.1625 -14.3125 9.0625 C-13.9825 9.0625 -13.6525 9.0625 -13.3125 9.0625 C-13.3125 13.3525 -13.3125 17.6425 -13.3125 22.0625 C-7.0425 21.7325 -0.7725 21.4025 5.6875 21.0625 C5.3575 15.4525 5.0275 9.8425 4.6875 4.0625 C1.92375 4.02125 -0.84 3.98 -3.6875 3.9375 C-4.55681152 3.91929199 -5.42612305 3.90108398 -6.32177734 3.88232422 C-8.31953478 3.86776262 -10.31717217 3.96293274 -12.3125 4.0625 C-12.9725 4.7225 -13.6325 5.3825 -14.3125 6.0625 C-14.3125 4.4125 -14.3125 2.7625 -14.3125 1.0625 C-9.54157044 -0.17152862 -4.88780554 -0.05015112 0 0 Z " fill="#C9A84C" transform="translate(38.3125,212.9375)"/>
<path d="M0 0 C0.33 0 0.66 0 1 0 C1 24.09 1 48.18 1 73 C5 74 5 74 7.6875 73.5 C10.60618441 73.05944386 12.39749713 73.09753046 15.25 73.5 C20.23768188 74.16163127 25.04849734 73.8841969 30 73 C32.03123075 70.96876925 31.25669618 66.82231134 31.31640625 64.02734375 C31.33718735 63.22970108 31.35796844 62.43205841 31.37937927 61.61024475 C31.44496158 59.05275389 31.50379967 56.4951572 31.5625 53.9375 C31.60567699 52.20767118 31.64929101 50.47785321 31.69335938 48.74804688 C31.80065172 44.4988074 31.90189426 40.2494611 32 36 C32.33 36 32.66 36 33 36 C33.165 42.6 33.165 42.6 34 76 C22.78 76 11.56 76 0 76 C0 50.92 0 25.84 0 0 Z " fill="#0D3658" transform="translate(77,96)"/>
<path d="M0 0 C6.6 0 13.2 0 20 0 C16.31912647 2.45391569 13.55644412 2.22802759 9.3125 2.125 C8.61060547 2.11597656 7.90871094 2.10695312 7.18554688 2.09765625 C5.45688475 2.07413704 3.72839855 2.03826713 2 2 C1.81648927 6.166084 1.65451632 10.33274172 1.5 14.5 C1.47532654 15.15762329 1.45065308 15.81524658 1.42523193 16.49279785 C1.07383748 26.21210812 0.97593601 35.91516664 1.0390625 45.640625 C1.04496399 46.72230957 1.05086548 47.80399414 1.0569458 48.91845703 C1.08880507 54.35820051 1.13890018 59.79699694 1.21289062 65.23632812 C1.22840717 67.25650632 1.24340487 69.27668859 1.2578125 71.296875 C1.2671431 71.76497589 1.2671431 71.76497589 1.31436157 74.1338501 C1.31777557 74.99556824 1.32118958 75.85728638 1.32470703 76.74511719 C1.33438507 77.49766785 1.34406311 78.25021851 1.35403442 79.02557373 C0.89982376 81.55867619 -0.02920302 82.39910852 -2 84 C-6.73614078 86.66126006 -11.89400721 86.40758693 -17.1875 86.5625 C-18.99362579 86.62232235 -20.79963118 86.68593746 -22.60546875 86.75390625 C-23.40106201 86.77783447 -24.19665527 86.8017627 -25.01635742 86.82641602 C-27 87 -27 87 -29 88 C-28.67 86.68 -28.34 85.36 -28 84 C-27.67725098 83.99009033 -27.67725098 83.99009033 -26.04394531 83.93994141 C-23.11222779 83.84453672 -20.18120768 83.73492029 -17.25 83.625 C-16.23421875 83.5940625 -15.2184375 83.563125 -14.171875 83.53125 C-13.1921875 83.49257813 -12.2125 83.45390625 -11.203125 83.4140625 C-10.30239258 83.3826416 -9.40166016 83.3512207 -8.47363281 83.31884766 C-5.89377669 82.98630797 -4.27508164 82.20827265 -2 81 C-1.98969254 80.23595352 -1.97938507 79.47190704 -1.96876526 78.68470764 C-1.8698782 71.40545191 -1.76725372 64.12626215 -1.66066074 56.84711552 C-1.6060153 53.1068416 -1.55270417 49.36655958 -1.50268555 45.6262207 C-1.09312674 15.12924157 -1.09312674 15.12924157 0 0 Z " fill="#C9A84C" transform="translate(228,194)"/>
<path d="M0 0 C0.37580452 -0.00014603 0.37580452 -0.00014603 2.27760315 -0.00088501 C4.75582523 0.00050559 7.23374466 0.01605395 9.71191406 0.03173828 C11.43255448 0.03546937 13.15319703 0.03831589 14.87384033 0.04031372 C19.39811082 0.0479426 23.9222525 0.0675847 28.44647217 0.08972168 C33.06488299 0.11019614 37.68331467 0.11931886 42.30175781 0.12939453 C51.3604081 0.15083129 60.41896286 0.18495827 69.47753906 0.22705078 C69.47753906 1.21705078 69.47753906 2.20705078 69.47753906 3.22705078 C67.47753906 4.91455078 67.47753906 4.91455078 65.47753906 6.22705078 C65.47753906 5.23705078 65.47753906 4.24705078 65.47753906 3.22705078 C40.06753906 2.89705078 14.65753906 2.56705078 -11.52246094 2.22705078 C-7.33281287 0.13222675 -4.51819452 -0.04604184 0 0 Z " fill="#0D3658" transform="translate(267.5224609375,-0.22705078125)"/>
<path d="M0 0 C0.98484375 -0.00128906 1.9696875 -0.00257813 2.984375 -0.00390625 C4.02078125 -0.00003906 5.0571875 0.00382813 6.125 0.0078125 C6.64320312 0.00587891 6.64320312 0.00587891 9.265625 -0.00390625 C10.25046875 -0.00261719 11.2353125 -0.00132812 12.25 0 C13.16007812 0.00112793 14.07015625 0.00225586 15.0078125 0.00341797 C17.125 0.1328125 17.125 0.1328125 18.125 1.1328125 C18.21213831 2.84053608 18.23200007 4.55179899 18.22265625 6.26171875 C18.21943359 7.29619141 18.21621094 8.33066406 18.21289062 9.39648438 C18.20451172 10.48509766 18.19613281 11.57371094 18.1875 12.6953125 C18.18298828 13.78779297 18.17847656 14.88027344 18.17382812 16.00585938 C18.16199826 18.71489745 18.14551543 21.42382849 18.125 24.1328125 C14.31251574 24.16168486 10.5000593 24.17956742 6.6875 24.1953125 C5.59888672 24.20369141 4.51027344 24.21207031 3.38867188 24.22070312 C2.35419922 24.22392578 1.31972656 24.22714844 0.25390625 24.23046875 C-0.70443115 24.23570557 -1.66276855 24.24094238 -2.65014648 24.24633789 C-4.875 24.1328125 -4.875 24.1328125 -5.875 23.1328125 C-5.9741657 21.51023706 -6.00579777 19.88341419 -6.0078125 18.2578125 C-6.00910156 17.27296875 -6.01039063 16.288125 -6.01171875 15.2734375 C-6.00785156 14.23703125 -6.00398437 13.200625 -6 12.1328125 C-6.00193359 11.61460937 -6.00193359 11.61460937 -6.01171875 8.9921875 C-6.01042969 8.00734375 -6.00914062 7.0225 -6.0078125 6.0078125 C-6.00668457 5.09773437 -6.00555664 4.18765625 -6.00439453 3.25 C-5.75735363 -0.79214854 -3.51772145 0.00435978 0 0 Z M-3.875 3.1328125 C-3.875 9.7328125 -3.875 16.3328125 -3.875 23.1328125 C3.055 23.1328125 9.985 23.1328125 17.125 23.1328125 C17.125 16.1328125 17.125 16.1328125 16.625 14.1953125 C16.09617651 12.01391559 16.12723149 10.24578303 16.1875 8.0078125 C16.125 4.1328125 16.125 4.1328125 14.125 2.1328125 C11.41868306 1.9607514 8.8278606 1.90042233 6.125 1.9453125 C5.38765625 1.94595703 4.6503125 1.94660156 3.890625 1.94726562 C-1.59398191 1.99230346 -1.59398191 1.99230346 -3.875 3.1328125 Z " fill="#C9A84C" transform="translate(5.875,145.8671875)"/>
<path d="M0 0 C37.62 0 75.24 0 114 0 C112.29638905 3.4072219 110.86767864 5.48035706 108.375 8.25 C108.05917969 8.60320312 108.05917969 8.60320312 106.4609375 10.390625 C105.97882813 10.92171875 105.49671875 11.4528125 105 12 C104.375 10.1875 104.375 10.1875 104 8 C104.66 7.01 105.32 6.02 106 5 C106 4.01 106 3.02 106 2 C105.33261307 2.00261841 104.66522614 2.00523682 103.97761536 2.00793457 C82.41933842 2.07952176 60.87023099 1.83753874 39.31445312 1.53643799 C34.86134761 1.47466977 30.40821158 1.41518239 25.95507812 1.35546875 C17.30335509 1.23913573 8.65166744 1.12039661 0 1 C0 0.67 0 0.34 0 0 Z " fill="#0D3658" transform="translate(155,79)"/>
<path d="M0 0 C0.66 0.33 1.32 0.66 2 1 C1 4 1 4 -0.8125 5.6875 C-6.16558429 11.34647482 -7.45591237 17.12709415 -7.82421875 24.77734375 C-8 27 -8 27 -9 28 C-9.14529803 29.55071944 -9.22716839 31.10749016 -9.28125 32.6640625 C-9.29994141 33.14294922 -9.29994141 33.14294922 -9.39453125 35.56640625 C-9.42933594 36.57574219 -9.46414063 37.58507812 -9.5 38.625 C-9.71857106 44.81784673 -9.97197987 50.88328022 -11 57 C-11.33 57 -11.66 57 -12 57 C-12.07466663 51.75304201 -12.12884421 46.50639957 -12.16479492 41.2590332 C-12.17979643 39.47740281 -12.20020433 37.69580881 -12.22631836 35.91430664 C-12.26308509 33.33991465 -12.27981285 30.7660147 -12.29296875 28.19140625 C-12.30845261 27.40665421 -12.32393646 26.62190216 -12.33988953 25.81336975 C-12.34232544 17.64206987 -10.1067786 10.42465695 -5 4 C-4.34 4 -3.68 4 -3 4 C-3 3.34 -3 2.68 -3 2 C-2.01 1.34 -1.02 0.68 0 0 Z " fill="#C9A84C" transform="translate(282,166)"/>
<path d="M0 0 C14.04690584 -0.02334046 28.09380867 -0.04091839 42.1407299 -0.05181217 C48.66267442 -0.05703958 55.18460594 -0.06413468 61.70654297 -0.07543945 C67.99589288 -0.08627334 74.28523026 -0.09227791 80.57458878 -0.09487724 C82.9788546 -0.09673058 85.3831197 -0.10034946 87.78738022 -0.10573006 C91.14456434 -0.1129471 94.50169614 -0.11399066 97.85888672 -0.11352539 C98.86157593 -0.11712067 99.86426514 -0.12071594 100.89733887 -0.12442017 C101.80881683 -0.1230455 102.7202948 -0.12167084 103.65939331 -0.12025452 C104.45397886 -0.12117631 105.24856441 -0.1220981 106.06722832 -0.12304783 C108 0 108 0 110 1 C110 2.32 110 3.64 110 5 C109.01 5 108.02 5 107 5 C106.835 4.34 106.835 4.34 106 1 C93.73432834 1.0844447 81.46878613 1.17934439 69.20329952 1.28752708 C63.5077094 1.33743555 57.81213734 1.3837662 52.11645508 1.421875 C46.61801907 1.45879645 41.11973615 1.50517526 35.62143135 1.55806351 C33.52555596 1.57657097 31.42964779 1.59169234 29.33372307 1.60334396 C26.39411679 1.62026875 23.45485834 1.64931909 20.51538086 1.68115234 C20.08380424 1.68223244 20.08380424 1.68223244 17.89976501 1.68769836 C11.87042949 1.77090121 6.28965716 2.00388863 1.5625 6.125 C1.046875 6.74375 0.53125 7.3625 0 8 C0 5.36 0 2.72 0 0 Z " fill="#0D3658" transform="translate(68,278)"/>
<path d="M0 0 C0.33 0 0.66 0 1 0 C1 7.92 1 15.84 1 24 C-27.05 24 -55.1 24 -84 24 C-84 23.67 -84 23.34 -84 23 C-64.07274639 22.15442418 -44.19302818 21.90397914 -24.2487793 22.03710938 C-23.34758362 22.04133911 -22.44638794 22.04556885 -21.5178833 22.04992676 C-19.82649025 22.05805751 -18.13510989 22.07038547 -16.44378662 22.08776855 C-13.07758276 22.102194 -10.02392292 22.00409814 -6.69360352 21.43359375 C-4 21 -4 21 0 22 C0 14.74 0 7.48 0 0 Z " fill="#C9A84C" transform="translate(335,234)"/>
<path d="M0 0 C0.51736221 0.00141495 0.51736221 0.00141495 3.13552856 0.00857544 C6.42640964 0.01973202 9.71701428 0.04482853 13.0078125 0.0703125 C15.24478772 0.08034813 17.48176723 0.08947297 19.71875 0.09765625 C25.19020998 0.1196566 30.66146444 0.1541555 36.1328125 0.1953125 C36.1328125 4.8153125 36.1328125 9.4353125 36.1328125 14.1953125 C35.8028125 14.1953125 35.4728125 14.1953125 35.1328125 14.1953125 C34.9678125 12.2153125 34.9678125 12.2153125 34.1328125 2.1953125 C32.39773438 2.2675 30.66265625 2.3396875 28.875 2.4140625 C26.58594012 2.50787643 24.29687747 2.60162289 22.0078125 2.6953125 C20.86570312 2.74300781 19.72359375 2.79070312 18.546875 2.83984375 C17.99257813 2.86240234 17.99257813 2.86240234 15.1875 2.9765625 C14.67952881 2.99750977 14.67952881 2.99750977 12.10888672 3.10351562 C9.11480107 3.19586806 6.12811626 3.21093338 3.1328125 3.1953125 C3.1328125 2.5353125 3.1328125 1.8753125 3.1328125 1.1953125 C-4.25324417 2.15234728 -11.00836462 3.23660459 -17.8671875 6.1953125 C-17.7421875 4.3203125 -17.7421875 4.3203125 -16.8671875 2.1953125 C-11.40373598 -0.38199916 -5.90246565 -0.06110583 0 0 Z M-19.8671875 6.1953125 C-19.2071875 6.5253125 -18.5471875 6.8553125 -17.8671875 7.1953125 C-18.8571875 7.1953125 -19.8471875 7.1953125 -20.8671875 7.1953125 C-20.5371875 6.8653125 -20.2071875 6.5353125 -19.8671875 6.1953125 Z " fill="#C9A84C" transform="translate(300.8671875,163.8046875)"/>
<path d="M0 0 C37.29 0 74.58 0 113 0 C110 9 110 9 108 11 C107.835 10.175 107.835 10.175 107 6 C107.99 6 108.98 6 110 6 C110 4.68 110 3.36 110 2 C73.7 1.67 37.4 1.34 0 1 C0 0.67 0 0.34 0 0 Z " fill="#0D3658" transform="translate(68,277)"/>
<path d="M0 0 C0.33 0 0.66 0 1 0 C1.98753178 9.14606357 1.89191731 17.84755626 1 27 C1.63236572 26.85199951 2.26473145 26.70399902 2.91625977 26.55151367 C10.71217401 24.91037935 18.00711646 24.90881874 25.9375 25.3125 C26.53981445 25.33666992 26.53981445 25.33666992 29.58789062 25.45898438 C34.24717516 25.66427354 38.46216177 25.86554044 43 27 C43 31.62 43 36.24 43 41 C42.67 41 42.34 41 42 41 C42 36.71 42 32.42 42 28 C27.81 28 13.62 28 -1 28 C-0.67 18.76 -0.34 9.52 0 0 Z " fill="#C9A84C" transform="translate(272,195)"/>
<path d="M0 0 C0.495 0.165 0.495 0.165 3 1 C-2.09188893 7.38686315 -7.32997068 13.52925091 -12.89819336 19.49902344 C-16.79505586 23.70437901 -20.3952278 28.10949255 -23.9296875 32.625 C-26.08818698 35.10116544 -28.38002911 37.02817522 -31 39 C-30.49396008 36.83125748 -30.00016187 35.00032373 -29 33 C-28.34 33 -27.68 33 -27 33 C-26.67 31.68 -26.34 30.36 -26 29 C-25.01 29 -24.02 29 -23 29 C-23 28.01 -23 27.02 -23 26 C-22.34 26 -21.68 26 -21 26 C-20.67 24.02 -20.34 22.04 -20 20 C-19.360625 19.87625 -18.72125 19.7525 -18.0625 19.625 C-17.381875 19.41875 -16.70125 19.2125 -16 19 C-15.67 18.34 -15.34 17.68 -15 17 C-14.34 17 -13.68 17 -13 17 C-13 16.34 -13 15.68 -13 15 C-12.34 15 -11.68 15 -11 15 C-10.67 14.01 -10.34 13.02 -10 12 C-9.33114545 10.59513683 -8.64242678 9.19961398 -7.9375 7.8125 C-7.57527344 7.09707031 -7.21304687 6.38164062 -6.83984375 5.64453125 C-6.56269531 5.10183594 -6.28554688 4.55914062 -6 4 C-5.34 4 -4.68 4 -4 4 C-3.67 3.34 -3.34 2.68 -3 2 C-2.01 1.34 -1.02 0.68 0 0 Z " fill="#0D3658" transform="translate(323,14)"/>
<path d="M0 0 C0.98484375 -0.00128906 1.9696875 -0.00257813 2.984375 -0.00390625 C4.02078125 -0.00003906 5.0571875 0.00382813 6.125 0.0078125 C6.64320312 0.00587891 6.64320312 0.00587891 9.265625 -0.00390625 C10.25046875 -0.00261719 11.2353125 -0.00132812 12.25 0 C13.16007812 0.00112793 14.07015625 0.00225586 15.0078125 0.00341797 C17.125 0.1328125 17.125 0.1328125 18.125 1.1328125 C18.21213831 2.84053608 18.23200007 4.55179899 18.22265625 6.26171875 C18.22015869 7.19314697 18.21766113 8.1245752 18.21508789 9.08422852 C18.20598389 10.27588623 18.19687988 11.46754395 18.1875 12.6953125 C18.166875 16.4696875 18.14625 20.2440625 18.125 24.1328125 C10.205 24.1328125 2.285 24.1328125 -5.875 24.1328125 C-5.895625 20.3584375 -5.91625 16.5840625 -5.9375 12.6953125 C-5.946604 11.50365479 -5.95570801 10.31199707 -5.96508789 9.08422852 C-5.96758545 8.15280029 -5.97008301 7.22137207 -5.97265625 6.26171875 C-5.97789307 5.30338135 -5.98312988 4.34504395 -5.98852539 3.35766602 C-5.77720219 -0.78381429 -3.62198603 0.00448901 0 0 Z M-4.875 1.1328125 C-4.875 8.3928125 -4.875 15.6528125 -4.875 23.1328125 C2.385 23.1328125 9.645 23.1328125 17.125 23.1328125 C17.125 16.2028125 17.125 9.2728125 17.125 2.1328125 C16.795 2.2978125 16.795 2.2978125 15.125 3.1328125 C13.41797265 3.20277264 11.70831997 3.21721404 10 3.1953125 C9.08992188 3.18628906 8.17984375 3.17726562 7.2421875 3.16796875 C6.54351562 3.15636719 5.84484375 3.14476562 5.125 3.1328125 C5.125 2.4728125 5.125 1.8128125 5.125 1.1328125 C1.825 1.1328125 -1.475 1.1328125 -4.875 1.1328125 Z " fill="#C9A84C" transform="translate(41.875,145.8671875)"/>
<path d="M0 0 C13.53 0 27.06 0 41 0 C41 22.44 41 44.88 41 68 C40.67 68 40.34 68 40 68 C39.67 46.22 39.34 24.44 39 2 C32.565 1.835 32.565 1.835 0 1 C0 0.67 0 0.34 0 0 Z " fill="#0D3658" transform="translate(3,278)"/>
<path d="M0 0 C0.80991898 0.00359528 1.61983795 0.00719055 2.45429993 0.01089478 C3.30300659 0.01074875 4.15171326 0.01060272 5.02613831 0.01045227 C7.84523532 0.01115168 10.66426712 0.01894539 13.48335266 0.02676392 C15.43248458 0.028628 17.38161696 0.03005195 19.33074951 0.03105164 C24.47151473 0.03487761 29.61225188 0.04470858 34.75300598 0.05575562 C39.99449789 0.06596802 45.23599431 0.07054889 50.47749329 0.07559204 C60.76982335 0.08633078 71.06213255 0.10340815 81.35444641 0.12442017 C81.35444641 0.45442017 81.35444641 0.78442017 81.35444641 1.12442017 C80.82311348 1.1295739 80.82311348 1.1295739 78.13424683 1.15565491 C68.14223692 1.25321496 58.15029172 1.35593206 48.15838718 1.46375942 C43.02088172 1.51903325 37.88337062 1.57246024 32.74580383 1.62173462 C27.79208179 1.66931257 22.83843129 1.72165272 17.88479424 1.77736092 C15.9904908 1.79781434 14.09616773 1.81652237 12.20182991 1.83349419 C9.55804941 1.85747233 6.91440543 1.88753546 4.27070618 1.9190979 C3.87509743 1.92197563 3.87509743 1.92197563 1.87307739 1.9365387 C-3.53150143 2.010368 -3.53150143 2.010368 -4.64555359 3.12442017 C-4.718271 5.47755571 -4.72926227 7.83275685 -4.70805359 10.18692017 C-4.69903015 11.47727173 -4.69000671 12.76762329 -4.68070984 14.09707642 C-4.66910828 15.09609985 -4.65750671 16.09512329 -4.64555359 17.12442017 C-5.30555359 16.79442017 -5.96555359 16.46442017 -6.64555359 16.12442017 C-6.67240454 13.64518216 -6.69231906 11.16623177 -6.70805359 8.68692017 C-6.71224304 8.33339478 -6.71224304 8.33339478 -6.73344421 6.54434204 C-6.74208946 4.73748457 -6.6977537 2.93054414 -6.64555359 1.12442017 C-4.8456696 -0.67546382 -2.39555483 0.00449012 0 0 Z " fill="#C9A84C" transform="translate(255.6455535888672,257.8755798339844)"/>
<path d="M0 0 C22.77 0 45.54 0 69 0 C69 0.33 69 0.66 69 1 C62.32280133 2.23390939 55.72608247 2.10928759 48.953125 2.0625 C48.32904755 2.06060669 48.32904755 2.06060669 45.1708374 2.05102539 C41.19719467 2.03884069 37.22360662 2.02039901 33.25 2 C28.00521339 1.9731789 22.76045906 1.95346058 17.515625 1.9375 C16.30626282 1.92920166 15.09690063 1.92090332 13.85089111 1.91235352 C12.73252869 1.90905029 11.61416626 1.90574707 10.46191406 1.90234375 C9.47709045 1.89710693 8.49226685 1.89187012 7.4776001 1.88647461 C5 2 5 2 2 3 C1.67 5.31 1.34 7.62 1 10 C0.67 10 0.34 10 0 10 C0 6.7 0 3.4 0 0 Z " fill="#C9A84C" transform="translate(94,193)"/>
<path d="M0 0 C-3 2 -3 2 -7 2 C-7 7.28 -7 12.56 -7 18 C-1.48314107 18.90275873 4.58991362 19.85200053 10 18 C11.2578125 15.94921875 11.2578125 15.94921875 12 14 C12 16.31 12 18.62 12 21 C5.07 21 -1.86 21 -9 21 C-9 14.4 -9 7.8 -9 1 C-6.04335481 -0.4783226 -3.25770263 -0.06032783 0 0 Z " fill="#C9A84C" transform="translate(11,148)"/>
<path d="M0 0 C3.3 0 6.6 0 10 0 C10 0.33 10 0.66 10 1 C7.36 1.33 4.72 1.66 2 2 C1.67 8.27 1.34 14.54 1 21 C7.27 20.67 13.54 20.34 20 20 C20.33 13.73 20.66 7.46 21 1 C21.33 1 21.66 1 22 1 C22 7.93 22 14.86 22 22 C14.74 22 7.48 22 0 22 C0 14.74 0 7.48 0 0 Z " fill="#C9A84C" transform="translate(37,147)"/>
<path d="M0 0 C2.0625 0.4375 2.0625 0.4375 4 1 C2.27227744 2.89716645 0.54287266 4.79275305 -1.1875 6.6875 C-1.67025391 7.21794922 -2.15300781 7.74839844 -2.65039062 8.29492188 C-5.687386 11.61727252 -8.7936902 14.84058321 -12 18 C-13.125 14.25 -13.125 14.25 -12 12 C-11.34 12 -10.68 12 -10 12 C-10 11.34 -10 10.68 -10 10 C-9.6803125 9.8659375 -9.6803125 9.8659375 -8.0625 9.1875 C-6 8 -6 8 -5 5 C-4.34 5 -3.68 5 -3 5 C-2.690625 4.360625 -2.38125 3.72125 -2.0625 3.0625 C-1 1 -1 1 0 0 Z " fill="#0D3658" transform="translate(246,102)"/>
<path d="M0 0 C7.59 0 15.18 0 23 0 C23 0.33 23 0.66 23 1 C15.74 1 8.48 1 1 1 C0.67 3.31 0.34 5.62 0 8 C-1.5 10.25 -1.5 10.25 -3 12 C-3.33 12.99 -3.66 13.98 -4 15 C-4.99 15 -5.98 15 -7 15 C-5.37866455 9.25162886 -3.08315311 5.5496756 0 0 Z " fill="#C9A84C" transform="translate(199,277)"/>
<path d="M0 0 C6.93 0 13.86 0 21 0 C21 0.33 21 0.66 21 1 C14.07 1 7.14 1 0 1 C0 0.67 0 0.34 0 0 Z M-1 1 C0.23102992 4.69308976 -0.12824848 7.88050712 -0.4375 11.6875 C-0.48970703 12.38939453 -0.54191406 13.09128906 -0.59570312 13.81445312 C-0.72507865 15.54338054 -0.86182531 17.27175355 -1 19 C-3 17 -3 17 -3.265625 13.8125 C-3.26046875 12.554375 -3.2553125 11.29625 -3.25 10 C-3.25515625 8.741875 -3.2603125 7.48375 -3.265625 6.1875 C-3 3 -3 3 -1 1 Z " fill="#C9A84C" transform="translate(293,183)"/>
<path d="M0 0 C0.33 0 0.66 0 1 0 C1 6.93 1 13.86 1 21 C0.01 20.67 -0.98 20.34 -2 20 C-3.10139804 16.69580589 -2.86041794 16.18694275 -2 13 C-1.70398356 9.86304797 -1.4941172 6.72562359 -1.28125 3.58203125 C-1 1 -1 1 0 0 Z " fill="#C9A84C" transform="translate(23,215)"/>
<path d="M0 0 C-1.44424635 3.23861303 -3.25772247 5.61969163 -5.625 8.25 C-6.25664062 8.95640625 -6.88828125 9.6628125 -7.5390625 10.390625 C-8.02117187 10.92171875 -8.50328125 11.4528125 -9 12 C-9.625 10.1875 -9.625 10.1875 -10 8 C-9.34 7.01 -8.68 6.02 -8 5 C-7.9278125 4.649375 -7.9278125 4.649375 -7.5625 2.875 C-7.376875 2.25625 -7.19125 1.6375 -7 1 C-4 0 -4 0 0 0 Z " fill="#0D3658" transform="translate(269,79)"/>
<path d="M0 0 C-0.33 1.65 -0.66 3.3 -1 5 C-1.5165918 4.35256836 -2.03318359 3.70513672 -2.56542969 3.03808594 C-5.79512609 0.33436497 -7.77691982 0.46140814 -11.953125 0.390625 C-12.61334656 0.37408875 -13.27356812 0.35755249 -13.95379639 0.34051514 C-16.05262626 0.29211549 -18.15073222 0.27068481 -20.25 0.25 C-21.6771196 0.22183317 -23.10420559 0.19190472 -24.53125 0.16015625 C-28.02067609 0.08636237 -31.50996472 0.03673721 -35 0 C-35 -0.33 -35 -0.66 -35 -1 C-30.65882638 -1.19275481 -26.31736798 -1.37139593 -21.97509766 -1.53710938 C-20.49870326 -1.59542647 -19.02245456 -1.65756463 -17.54638672 -1.72363281 C-15.42181939 -1.81805803 -13.29710326 -1.89862513 -11.171875 -1.9765625 C-9.8940918 -2.02893066 -8.61630859 -2.08129883 -7.29980469 -2.13525391 C-4.17769442 -2.00728342 -2.58596031 -1.66891271 0 0 Z " fill="#C9A84C" transform="translate(163,215)"/>
<path d="M0 0 C2.05078125 0.03255208 4.1015625 0.06510417 6.15234375 0.09765625 C6.15234375 0.42765625 6.15234375 0.75765625 6.15234375 1.09765625 C4.17234375 1.75765625 2.19234375 2.41765625 0.15234375 3.09765625 C-0.70064001 6.7715312 -0.95555096 10.14239555 -0.91015625 13.91015625 C-0.90113281 14.88597656 -0.89210937 15.86179688 -0.8828125 16.8671875 C-0.87121094 17.60324219 -0.85960937 18.33929688 -0.84765625 19.09765625 C0.47234375 19.42765625 1.79234375 19.75765625 3.15234375 20.09765625 C1.17234375 20.09765625 -0.80765625 20.09765625 -2.84765625 20.09765625 C-2.87654139 16.95184202 -2.89441548 13.80606156 -2.91015625 10.66015625 C-2.91853516 9.76232422 -2.92691406 8.86449219 -2.93554688 7.93945312 C-2.93876953 7.08544922 -2.94199219 6.23144531 -2.9453125 5.3515625 C-2.94793091 4.95618286 -2.94793091 4.95618286 -2.96118164 2.95532227 C-2.80704955 0.4331909 -2.52550843 0.13348353 0 0 Z " fill="#C9A84C" transform="translate(40.84765625,147.90234375)"/>
<path d="M0 0 C6.6 0 13.2 0 20 0 C20.33 1.65 20.66 3.3 21 5 C20.67 4.34 20.34 3.68 20 3 C16.7 3 13.4 3 10 3 C10 2.34 10 1.68 10 1 C6.7 1 3.4 1 0 1 C0 0.67 0 0.34 0 0 Z " fill="#C9A84C" transform="translate(37,146)"/>
<path d="M0 0 C0.33 0 0.66 0 1 0 C0.55643705 6.20988129 -0.91532502 10.60540561 -4 16 C-4.33 16 -4.66 16 -5 16 C-4.67 12.37 -4.34 8.74 -4 5 C-2.68 4.67 -1.36 4.34 0 4 C0 2.68 0 1.36 0 0 Z " fill="#C9A84C" transform="translate(249,277)"/>
<path d="M0 0 C1.2685771 3.80573129 0.88817586 6.10569048 0 10 C-1.875 12.4375 -1.875 12.4375 -4 14 C-4.99 14 -5.98 14 -7 14 C-7 13.34 -7 12.68 -7 12 C-6.525625 11.566875 -6.05125 11.13375 -5.5625 10.6875 C-3.58616914 8.55306267 -3.38336764 6.83692053 -3 4 C-2.34 4 -1.68 4 -1 4 C-0.67 2.68 -0.34 1.36 0 0 Z " fill="#C9A84C" transform="translate(244,284)"/>
<path d="M0 0 C0.33 0 0.66 0 1 0 C1.19502282 2.91634122 1.38129328 5.83279545 1.5625 8.75 C1.61857422 9.575 1.67464844 10.4 1.73242188 11.25 C1.78076172 12.04921875 1.82910156 12.8484375 1.87890625 13.671875 C1.90247192 14.03845215 1.90247192 14.03845215 2.02172852 15.89355469 C1.99913793 18.08357226 1.61487456 19.90487187 1 22 C0.34 22 -0.32 22 -1 22 C-1.02903577 18.89585298 -1.0468107 15.79174091 -1.0625 12.6875 C-1.07087891 11.80642578 -1.07925781 10.92535156 -1.08789062 10.01757812 C-1.09111328 9.17001953 -1.09433594 8.32246094 -1.09765625 7.44921875 C-1.10289307 6.66893311 -1.10812988 5.88864746 -1.11352539 5.0847168 C-1 3 -1 3 0 0 Z " fill="#C9A84C" transform="translate(248,259)"/>
<path d="M0 0 C3.63 0 7.26 0 11 0 C11 0.33 11 0.66 11 1 C8.36 1.33 5.72 1.66 3 2 C1.42922093 7.02649303 0.55145271 11.76119922 0 17 C-0.33 17 -0.66 17 -1 17 C-1.10477512 11.21408489 -0.99250545 5.70690634 0 0 Z " fill="#0D3658" transform="translate(3,279)"/>
<path d="M0 0 C0.55107422 0.00580078 0.55107422 0.00580078 3.33984375 0.03515625 C3.89220703 0.03966797 3.89220703 0.03966797 6.6875 0.0625 C7.54214844 0.07410156 8.39679688 0.08570313 9.27734375 0.09765625 C9.27734375 0.42765625 9.27734375 0.75765625 9.27734375 1.09765625 C8.56707031 1.15824219 7.85679687 1.21882813 7.125 1.28125 C6.20589844 1.36503906 5.28679687 1.44882812 4.33984375 1.53515625 C3.42332031 1.61636719 2.50679687 1.69757813 1.5625 1.78125 C-0.72265625 2.09765625 -0.72265625 2.09765625 -1.72265625 3.09765625 C-1.79537366 5.4507918 -1.80636493 7.80599293 -1.78515625 10.16015625 C-1.77613281 11.45050781 -1.76710937 12.74085938 -1.7578125 14.0703125 C-1.74621094 15.06933594 -1.73460937 16.06835938 -1.72265625 17.09765625 C-2.38265625 16.76765625 -3.04265625 16.43765625 -3.72265625 16.09765625 C-3.7495072 13.61841824 -3.76942172 11.13946785 -3.78515625 8.66015625 C-3.7893457 8.30663086 -3.7893457 8.30663086 -3.81054688 6.51757812 C-3.81919213 4.71072066 -3.77485636 2.90378022 -3.72265625 1.09765625 C-2.72265625 0.09765625 -2.72265625 0.09765625 0 0 Z " fill="#C9A84C" transform="translate(252.72265625,257.90234375)"/>
<path d="M0 0 C0.99 0.66 1.98 1.32 3 2 C3.56247753 6.9685515 3.0483797 10.01365731 0 14 C-0.33 14.165 -0.33 14.165 -2 15 C-1.67 14.01 -1.34 13.02 -1 12 C-0.77674186 9.94106379 -0.59294241 7.87766347 -0.4375 5.8125 C-0.35371094 4.72582031 -0.26992188 3.63914063 -0.18359375 2.51953125 C-0.12300781 1.68808594 -0.06242187 0.85664063 0 0 Z " fill="#C9A84C" transform="translate(315,224)"/>
<path d="M0 0 C3 0 3 0 4.625 1.0625 C6.62066174 3.87456882 6.68138504 6.62268141 7 10 C4.06799526 7.14723863 1.35684596 4.34920216 -1 1 C-0.67 0.67 -0.34 0.34 0 0 Z " fill="#0D3658" transform="translate(24,370)"/>
<path d="M0 0 C2.20665404 3.30998105 2.78262095 5.82021436 3.625 9.6875 C3.88539063 10.86699219 4.14578125 12.04648438 4.4140625 13.26171875 C4.60742188 14.16535156 4.80078125 15.06898438 5 16 C1.09375 13.2734375 1.09375 13.2734375 0.25 10.8125 C-0.07226988 7.1869639 -0.06169413 3.63995356 0 0 Z " fill="#C9A84C" transform="translate(184,212)"/>
<path d="M0 0 C3.91402949 1.26941497 5.79072873 2.51167694 8 6 C7.34 6 6.68 6 6 6 C5.67 6.66 5.34 7.32 5 8 C4.401875 7.38125 3.80375 6.7625 3.1875 6.125 C1 4 1 4 -2 2 C-1.34 2 -0.68 2 0 2 C0 1.34 0 0.68 0 0 Z " fill="#C9A84C" transform="translate(171,195)"/>
<path d="M0 0 C3.96 0 7.92 0 12 0 C12 0.33 12 0.66 12 1 C10.515 1.165 10.515 1.165 3 2 C2.34 5.3 1.68 8.6 1 12 C0.67 12 0.34 12 0 12 C0 8.04 0 4.08 0 0 Z " fill="#C9A84C" transform="translate(2,194)"/>
<path d="M0 0 C-0.47202486 4.24822374 -2.96655518 6.19989709 -6 9 C-7.125 5.25 -7.125 5.25 -6 3 C-5.34 3 -4.68 3 -4 3 C-4 2.34 -4 1.68 -4 1 C-2 0 -2 0 0 0 Z " fill="#0D3658" transform="translate(240,111)"/>
<path d="M0 0 C3.63 0 7.26 0 11 0 C11 0.33 11 0.66 11 1 C9.9275 1.2475 8.855 1.495 7.75 1.75 C4.00350563 2.99883146 2.47926118 4.02488658 0 7 C0 4.69 0 2.38 0 0 Z " fill="#0D3658" transform="translate(68,279)"/>
<path d="M0 0 C0.66 0.66 1.32 1.32 2 2 C-0.94386623 3.47193312 -3.37390036 2.84936173 -6.625 2.5625 C-7.81351563 2.46066406 -9.00203125 2.35882813 -10.2265625 2.25390625 C-11.14179688 2.17011719 -12.05703125 2.08632812 -13 2 C-13 1.67 -13 1.34 -13 1 C-8.63182208 0.30109153 -4.426216 -0.30880577 0 0 Z " fill="#C9A84C" transform="translate(169,193)"/>
<path d="M0 0 C4.39158329 1.4638611 4.87947433 3.97831338 7 8 C4 8 4 8 2.61328125 6.6875 C1.40885417 5.125 0.20442708 3.5625 -1 2 C-0.67 1.34 -0.34 0.68 0 0 Z " fill="#0D3658" transform="translate(40,387)"/>
<path d="M0 0 C3.32901247 2.21934164 3.75023244 3.34683329 5 7 C4.01 7 3.02 7 2 7 C-0.1875 4.5 -0.1875 4.5 -2 2 C-1.34 2 -0.68 2 0 2 C0 1.34 0 0.68 0 0 Z " fill="#0D3658" transform="translate(11,354)"/>
<path d="M0 0 C0.66 0.99 1.32 1.98 2 3 C0.35 4.98 -1.3 6.96 -3 9 C-3.66 7.68 -4.32 6.36 -5 5 C-3.33333333 3.33333333 -1.66666667 1.66666667 0 0 Z " fill="#0D3658" transform="translate(232,118)"/>
<path d="M0 0 C0.99 0.33 1.98 0.66 3 1 C3.33 1.99 3.66 2.98 4 4 C2.68 5.32 1.36 6.64 0 8 C-1.125 2.25 -1.125 2.25 0 0 Z " fill="#0D3658" transform="translate(329,3)"/>
<path d="M0 0 C1.65 0 3.3 0 5 0 C4.67 0.66 4.34 1.32 4 2 C3.34 2 2.68 2 2 2 C1.67 4.31 1.34 6.62 1 9 C0.67 9 0.34 9 0 9 C0 6.03 0 3.06 0 0 Z " fill="#C9A84C" transform="translate(94,194)"/>
<path d="M0 0 C0.99 0 1.98 0 3 0 C2.34 1.65 1.68 3.3 1 5 C-1.31 4.67 -3.62 4.34 -6 4 C-3 2 -3 2 0 2 C0 1.34 0 0.68 0 0 Z " fill="#0D3658" transform="translate(169,295)"/>
<path d="M0 0 C0.66 0.33 1.32 0.66 2 1 C0.68 2.65 -0.64 4.3 -2 6 C-1.125 1.125 -1.125 1.125 0 0 Z M-5 6 C-4.01 6 -3.02 6 -2 6 C-2.66 7.32 -3.32 8.64 -4 10 C-4.33 8.68 -4.66 7.36 -5 6 Z " fill="#C9A84C" transform="translate(197,286)"/>
<path d="M0 0 C0.66 0 1.32 0 2 0 C1.65120368 3.25543229 0.97866739 4.01873107 -1.5625 6.25 C-2.366875 6.8275 -3.17125 7.405 -4 8 C-3.49396008 5.83125748 -3.00016187 4.00032373 -2 2 C-1.34 2 -0.68 2 0 2 C0 1.34 0 0.68 0 0 Z " fill="#0D3658" transform="translate(296,45)"/>
<path d="M0 0 C1.32 0 2.64 0 4 0 C3.39816251 2.02045442 2.72693904 4.02111039 2 6 C1.67 6.165 1.67 6.165 0 7 C0 4.69 0 2.38 0 0 Z " fill="#0D3658" transform="translate(172,288)"/>
<path d="M0 0 C0.66 0 1.32 0 2 0 C1.45773019 3.79588866 -0.20127563 5.47211993 -3 8 C-3 6.68 -3 5.36 -3 4 C-2.34 4 -1.68 4 -1 4 C-0.67 2.68 -0.34 1.36 0 0 Z " fill="#0D3658" transform="translate(253,94)"/>
<path d="M0 0 C0.33 0 0.66 0 1 0 C0.67 2.64 0.34 5.28 0 8 C-0.99 8 -1.98 8 -3 8 C-1.125 2.25 -1.125 2.25 0 0 Z " fill="#C9A84C" transform="translate(195,284)"/>
<path d="M0 0 C0.33 0.66 0.66 1.32 1 2 C1.66 2 2.32 2 3 2 C3 4.64 3 7.28 3 10 C0.70366176 6.55549263 0.45983515 4.06187717 0 0 Z " fill="#C9A84C" transform="translate(162,221)"/>
<path d="M0 0 C1.32 0.66 2.64 1.32 4 2 C3.67 3.65 3.34 5.3 3 7 C1.68 5.35 0.36 3.7 -1 2 C-0.67 1.34 -0.34 0.68 0 0 Z " fill="#C9A84C" transform="translate(159,213)"/>
<path d="M0 0 C0.66 0.33 1.32 0.66 2 1 C1.67 1.99 1.34 2.98 1 4 C-2.0625 5.1875 -2.0625 5.1875 -5 6 C-5 5.34 -5 4.68 -5 4 C-4.34 4 -3.68 4 -3 4 C-3 3.34 -3 2.68 -3 2 C-2.01 1.34 -1.02 0.68 0 0 Z " fill="#C9A84C" transform="translate(282,166)"/>
<path d="M0 0 C0.99 0 1.98 0 3 0 C3 0.66 3 1.32 3 2 C2.34 2 1.68 2 1 2 C1 3.32 1 4.64 1 6 C0.01 6 -0.98 6 -2 6 C-1.34 4.02 -0.68 2.04 0 0 Z " fill="#0D3658" transform="translate(249,96)"/>
</svg>
